<?xml version="1.0" encoding="utf-8"?>
<!-- Generator: Adobe Illustrator 28.3.0, SVG Export Plug-In . SVG Version: 6.00 Build 0)  -->
<svg version="1.1" id="a" xmlns="http://www.w3.org/2000/svg" xmlns:xlink="http://www.w3.org/1999/xlink" x="0px" y="0px"
	 viewBox="0 0 336.4 323.3" style="enable-background:new 0 0 336.4 323.3;" xml:space="preserve">
<style type="text/css">
	.st0{fill:#2D2D2D;}
	.st1{opacity:0.2;enable-background:new    ;}
	.st2{opacity:0.2;fill:#FFFFFF;enable-background:new    ;}
	.st3{opacity:0.3;fill:#FFFFFF;enable-background:new    ;}
	.st4{opacity:0.7;fill:#FFFFFF;enable-background:new    ;}
	.st5{opacity:0.3;fill:#2D2D2D;enable-background:new    ;}
	.st6{opacity:0.8;fill:#FFFFFF;enable-background:new    ;}
	.st7{fill:#0C0C0C;}
	.st8{fill:#FFFFFF;}
	.st9{opacity:0.5;fill:#FFFFFF;enable-background:new    ;}
	.st10{opacity:0.6;fill:#2D2D2D;enable-background:new    ;}
	.st11{opacity:0.5;fill:#2D2D2D;enable-background:new    ;}
	.st12{opacity:0.6;fill:#FFFFFF;enable-background:new    ;}
</style>
<g id="b">
	<path class="st0" d="M60.8,207.2H0v-27.5l60.8-72.3H90v73.9h15.1v25.9H90v22.5H60.8V207.2z M60.8,181.3v-37.8l-32.2,37.8H60.8z"/>
	<path class="st0" d="M115.5,169.1c0-22.9,4.1-38.8,12.3-48s20.8-13.7,37.6-13.7c8.1,0,14.7,1,19.9,3c5.2,2,9.4,4.6,12.7,7.8
		c3.3,3.2,5.9,6.6,7.8,10.1s3.4,7.6,4.6,12.3c2.2,9,3.4,18.3,3.4,28.1c0,21.8-3.7,37.8-11.1,47.9c-7.4,10.1-20.1,15.2-38.1,15.2
		c-10.1,0-18.3-1.6-24.5-4.8c-6.2-3.2-11.4-7.9-15.3-14.2c-2.9-4.4-5.2-10.5-6.8-18.2C116.3,186.9,115.5,178.4,115.5,169.1
		L115.5,169.1z M148.6,169.2c0,15.3,1.4,25.8,4.1,31.4c2.7,5.6,6.6,8.4,11.8,8.4c3.4,0,6.3-1.2,8.8-3.6s4.3-6.1,5.5-11.3
		c1.2-5.1,1.8-13.1,1.8-24c0-16-1.4-26.7-4.1-32.2c-2.7-5.5-6.8-8.2-12.2-8.2s-9.5,2.8-12,8.4C149.8,143.6,148.6,154,148.6,169.2
		L148.6,169.2z"/>
	<path class="st0" d="M284.9,207.2h-60.9v-27.5l60.9-72.3H314v73.9h15.1v25.9H314v22.5h-29.1L284.9,207.2L284.9,207.2z M284.9,181.3
		v-37.8l-32.1,37.8H284.9z"/>
</g>
<g id="c">
	<path class="st1" d="M307.3,107.4c-26.9,18.2-61.7,42.1-71.3,99.8h-2.1c9.4-57,42.9-81.6,69.8-99.8
		C303.7,107.4,307.3,107.4,307.3,107.4z"/>
	<path class="st0" d="M168.2,287.8c-17,0-33.8-7.7-42-20.2c-5.1-7.7-10.9-23.9,6.6-45.6l1.6,1.3c-12.4,15.3-14.7,30.6-6.4,43.2
		c10,15.3,33.6,23,53.7,17.5c20.6-5.6,33.2-23.6,34.4-49.2c4.1-87.8,50.8-114.9,84.9-134.6C322,88,337.3,79.1,333.9,60.4
		c-0.5-2.6-1.5-4.4-3.2-5.5c-4.4-2.9-12.9-0.9-22.7,1.4c-19.3,4.5-45.8,10.7-61.5-16.1l1.7-1c15,25.5,39.6,19.8,59.3,15.2
		c10.3-2.4,19.2-4.5,24.2-1.1c2.1,1.4,3.5,3.6,4,6.8c3.6,20.1-13,29.7-34.1,41.9c-33.7,19.5-79.8,46.3-83.9,133
		c-1.2,26.6-14.3,45.2-35.8,51.1C177.6,287.3,172.9,287.9,168.2,287.8L168.2,287.8z"/>
	<path class="st2" d="M168.2,287.8c-17,0-33.8-7.7-42-20.2c-5.1-7.7-10.9-23.9,6.6-45.6l1.6,1.3c-12.4,15.3-14.7,30.6-6.4,43.2
		c10,15.3,33.6,23,53.7,17.5c20.6-5.6,33.2-23.6,34.4-49.2c4.1-87.8,50.8-114.9,84.9-134.6C322,88,337.3,79.1,333.9,60.4
		c-0.5-2.6-1.5-4.4-3.2-5.5c-4.4-2.9-12.9-0.9-22.7,1.4c-19.3,4.5-45.8,10.7-61.5-16.1l1.7-1c15,25.5,39.6,19.8,59.3,15.2
		c10.3-2.4,19.2-4.5,24.2-1.1c2.1,1.4,3.5,3.6,4,6.8c3.6,20.1-13,29.7-34.1,41.9c-33.7,19.5-79.8,46.3-83.9,133
		c-1.2,26.6-14.3,45.2-35.8,51.1C177.6,287.3,172.9,287.9,168.2,287.8L168.2,287.8z"/>
	<path class="st0" d="M225.9,16.5c6.9-0.1,13.6,2.1,13.6,2.1s11,18.8,12.3,23.1c-0.5,4.2-7.6,11.2-7.6,11.2L225.9,16.5z"/>
	<path class="st3" d="M225.9,16.5c6.9-0.1,13.6,2.1,13.6,2.1s11,18.8,12.3,23.1c-0.5,4.2-7.6,11.2-7.6,11.2L225.9,16.5z"/>
	<path class="st0" d="M258.5,107.7c-4.1-5.2-8.2-10.6-11.6-16.4c-0.8-1.4-1.6-2.9-2.4-4.4c-0.4-0.8-0.8-1.7-1.2-2.6
		c-0.4-0.8-1.1-1.9-1.2-2.7c-1.2-12.7,3.1-22-1-32.2l-16.5,6.4c0,0,1.4,18.1,4.6,29c2,6.7,6.5,12.6,10.8,17.9c1.4,1.7,2.7,3.4,4,5.1
		c1.3,1.6,2.7,3.1,4,4.7c1.9,2.4,2.6,4.7,1.1,7.6c-0.1,0.2-0.2,0.3-0.2,0.4c-0.4,0.7,1.6,1.6,2.8,0c2-2.6,1.7-2.4,3.5-4.6
		c1.1-1.3,2.3-2.8,3.3-4C259.5,110.7,259.5,109,258.5,107.7L258.5,107.7z"/>
	<path class="st4" d="M258.5,107.7c-4.1-5.2-8.2-10.6-11.6-16.4c-0.8-1.4-1.6-2.9-2.4-4.4c-0.4-0.8-0.8-1.7-1.2-2.6
		c-0.4-0.8-1.1-1.9-1.2-2.7c-1.2-12.7,3.1-22-1-32.2l-16.5,6.4c0,0,1.4,18.1,4.6,29c2,6.7,6.5,12.6,10.8,17.9c1.4,1.7,2.7,3.4,4,5.1
		c1.3,1.6,2.7,3.1,4,4.7c1.9,2.4,2.6,4.7,1.1,7.6c-0.1,0.2-0.2,0.3-0.2,0.4c-0.4,0.7,1.6,1.6,2.8,0c2-2.6,1.7-2.4,3.5-4.6
		c1.1-1.3,2.3-2.8,3.3-4C259.5,110.7,259.5,109,258.5,107.7L258.5,107.7z"/>
	<path class="st5" d="M254.5,102.5c-2.2,2.7-6.7,6.1-8.7,7.5c0.4,0.5,0.9,1,1.3,1.5c4.1-2.7,7.3-6.1,8.5-7.5
		C255.2,103.5,254.9,103,254.5,102.5z"/>
	<path class="st5" d="M258.5,107.7c0-0.1-0.1-0.1-0.1-0.2c-0.7,0.7-1.2,1.9-1.3,3.2c-0.1,0.9,0.1,1.7,0.4,2.3c0.3-0.4,0.6-0.8,1-1.1
		C259.5,110.7,259.5,109,258.5,107.7L258.5,107.7z"/>
	<path class="st0" d="M222,28.5c-1.7,2.5-3.8,5-6.4,7.2c-1.3,1.1-2.8,2.1-4.4,3c-0.8,0.4-1.7,0.8-2.6,1.1L208,40l-0.2,0.1
		c-0.2,0-0.3,0.1-0.5,0.1c-0.3,0.1-0.6,0.1-0.9,0.1c-1.1,0.1-1.9-0.1-2.5-0.2c-1.3-0.3-2.1-0.8-2.9-1.3c-0.8-0.5-1.5-0.9-2.1-1.4
		c-1.3-1-2.5-2-3.6-3c-2.2-2.1-4.2-4.3-6-6.7c-0.8-1.1-0.6-2.7,0.5-3.5c0.9-0.6,2-0.6,2.8-0.1l0.1,0c2.4,1.5,4.7,3.1,7.1,4.5
		c1.2,0.7,2.3,1.4,3.4,1.9c0.6,0.3,1.1,0.5,1.6,0.7c0.5,0.2,0.9,0.3,1.1,0.3c0.1,0,0-0.1-0.4-0.1c-0.1,0-0.2,0-0.3,0
		c-0.1,0-0.1,0-0.2,0.1c-0.1,0,0,0,0,0l0.3-0.2c0.4-0.2,0.9-0.5,1.3-0.8c0.9-0.6,1.7-1.3,2.5-2.1c1.6-1.6,3.2-3.7,4.9-5.8l0,0
		c1.7-2.2,4.9-2.5,7-0.8C223.1,23.4,223.5,26.4,222,28.5L222,28.5z"/>
	<path class="st4" d="M222,28.5c-1.7,2.5-3.8,5-6.4,7.2c-1.3,1.1-2.8,2.1-4.4,3c-0.8,0.4-1.7,0.8-2.6,1.1L208,40l-0.2,0.1
		c-0.2,0-0.3,0.1-0.5,0.1c-0.3,0.1-0.6,0.1-0.9,0.1c-1.1,0.1-1.9-0.1-2.5-0.2c-1.3-0.3-2.1-0.8-2.9-1.3c-0.8-0.5-1.5-0.9-2.1-1.4
		c-1.3-1-2.5-2-3.6-3c-2.2-2.1-4.2-4.3-6-6.7c-0.8-1.1-0.6-2.7,0.5-3.5c0.9-0.6,2-0.6,2.8-0.1l0.1,0c2.4,1.5,4.7,3.1,7.1,4.5
		c1.2,0.7,2.3,1.4,3.4,1.9c0.6,0.3,1.1,0.5,1.6,0.7c0.5,0.2,0.9,0.3,1.1,0.3c0.1,0,0-0.1-0.4-0.1c-0.1,0-0.2,0-0.3,0
		c-0.1,0-0.1,0-0.2,0.1c-0.1,0,0,0,0,0l0.3-0.2c0.4-0.2,0.9-0.5,1.3-0.8c0.9-0.6,1.7-1.3,2.5-2.1c1.6-1.6,3.2-3.7,4.9-5.8l0,0
		c1.7-2.2,4.9-2.5,7-0.8C223.1,23.4,223.5,26.4,222,28.5L222,28.5z"/>
	<path class="st0" d="M185.5,22l1.2,2c0,0,0.9,2.6,2.7,3.1l4.9-1.6l-0.2-0.4l0,0c-0.6-1-0.6-2.8-0.3-4.3c0.2-1.5-0.6-1.6-1.1-1.2
		c-0.3,0.2-0.6,0.9-0.9,1.7c-0.2-0.3-0.5-0.6-0.8-0.9l-1.5-1.5c-0.6-0.6-1.7-0.7-2.3-0.1l-1.2,1.1C185.2,20.4,185,21.3,185.5,22
		L185.5,22z"/>
	<path class="st4" d="M185.5,22l1.2,2c0,0,0.9,2.6,2.7,3.1l4.9-1.6l-0.2-0.4l0,0c-0.6-1-0.6-2.8-0.3-4.3c0.2-1.5-0.6-1.6-1.1-1.2
		c-0.3,0.2-0.6,0.9-0.9,1.7c-0.2-0.3-0.5-0.6-0.8-0.9l-1.5-1.5c-0.6-0.6-1.7-0.7-2.3-0.1l-1.2,1.1C185.2,20.4,185,21.3,185.5,22
		L185.5,22z"/>
	<path class="st0" d="M230.9,14.8c-4.6,1.1-11,3.8-15.4,6.5c-1.5,1-2.3,2.8-1.9,4.5c1.9,9.4,6.3,22.1,11.1,30.1l22.1-9.2
		c0.1-3.9-5.2-16.5-10.7-28.7C235.1,15.9,233.2,14.2,230.9,14.8L230.9,14.8z"/>
	<path class="st6" d="M230.9,14.8c-4.6,1.1-11,3.8-15.4,6.5c-1.5,1-2.3,2.8-1.9,4.5c1.9,9.4,6.3,22.1,11.1,30.1l22.1-9.2
		c0.1-3.9-5.2-16.5-10.7-28.7C235.1,15.9,233.2,14.2,230.9,14.8L230.9,14.8z"/>
	<path class="st5" d="M239.5,25.8l-4.4-1.5c1,2.6,4.5,5.8,7,7.7C241.3,30,240.4,28,239.5,25.8z"/>
	<path class="st0" d="M229.4,4.9c-1.8-3.5-5.8-5.2-10.5-4.8c-4,0.3-7.5,4.4-7.1,6.6c0.4,2.2,3.8,3.1,4.4,3.9l-2.8,2
		c-1.4,1-1.6,2.9-0.6,4.3c1.2,1.5,2.7,3,3.6,4.1c7.7-0.2,13.3-3.1,15.4-5.9C231,11.5,231.2,8.3,229.4,4.9L229.4,4.9z"/>
	<path class="st6" d="M229.4,4.9c-1.8-3.5-5.8-5.2-10.5-4.8c-4,0.3-7.5,4.4-7.1,6.6c0.4,2.2,3.8,3.1,4.4,3.9l-2.8,2
		c-1.4,1-1.6,2.9-0.6,4.3c1.2,1.5,2.7,3,3.6,4.1c7.7-0.2,13.3-3.1,15.4-5.9C231,11.5,231.2,8.3,229.4,4.9L229.4,4.9z"/>
	<path class="st7" d="M225.6,7.1c1.5,3.9-0.4,8.3-4.3,9.8c-3.9,1.5-8.3-0.4-9.8-4.3c-1.5-3.9,0.4-8.3,4.3-9.8
		C219.7,1.2,224.1,3.2,225.6,7.1z"/>
	<path class="st0" d="M290.6,97.2c-0.1-3.3-0.2-3-0.4-5.8c-0.1-1.7-0.1-3.6-0.1-5.2c0-1.6-1.1-3-2.7-3.3c-1.3-0.3-2.6-0.5-4-0.8
		c-1.7-0.4-3.4-0.8-5.1-1.3c-1.3-0.4-2.6-0.8-3.9-1.3c-1.4-0.5-2.7-1-4.1-1.6c-1.6-0.7-3.1-1.4-4.7-2.1c-1.7-0.8-3.4-1.7-5.1-2.6
		c-6.6-10.9-6.7-18.1-13.8-26.5l-15.2,6.9c0,0,11.1,19.8,18.7,28.2c4.4,4.8,11.2,7,17.3,8.6c4.4,1.1,8.9,2,13.4,2.8
		c1.7,0.3,3.6,0.4,5.1,1.5c1.2,0.8,1.8,2.1,2.1,3.4c0.1,0.3,0.1,0.6,0.2,0.8C288.6,99.8,290.6,99.1,290.6,97.2L290.6,97.2z"/>
	<path class="st6" d="M290.6,97.2c-0.1-3.3-0.2-3-0.4-5.8c-0.1-1.7-0.1-3.6-0.1-5.2c0-1.6-1.1-3-2.7-3.3c-1.3-0.3-2.6-0.5-4-0.8
		c-1.7-0.4-3.4-0.8-5.1-1.3c-1.3-0.4-2.6-0.8-3.9-1.3c-1.4-0.5-2.7-1-4.1-1.6c-1.6-0.7-3.1-1.4-4.7-2.1c-1.7-0.8-3.4-1.7-5.1-2.6
		c-6.6-10.9-6.7-18.1-13.8-26.5l-15.2,6.9c0,0,11.1,19.8,18.7,28.2c4.4,4.8,11.2,7,17.3,8.6c4.4,1.1,8.9,2,13.4,2.8
		c1.7,0.3,3.6,0.4,5.1,1.5c1.2,0.8,1.8,2.1,2.1,3.4c0.1,0.3,0.1,0.6,0.2,0.8C288.6,99.8,290.6,99.1,290.6,97.2L290.6,97.2z"/>
	<path class="st5" d="M282.9,82c-0.6-0.1-1.2-0.3-1.8-0.4c0,3.4-1.6,9.4-2.2,11.2c0.6,0.1,1.3,0.2,1.9,0.4
		C282.5,88.4,282.8,83.4,282.9,82L282.9,82z"/>
	<path class="st5" d="M290.1,86.2c0-1.6-1.1-3-2.7-3.3c-0.3-0.1-0.6-0.1-1-0.2c0.1,0.9,0.6,2,1.6,2.9c0.6,0.6,1.4,1,2,1.1
		C290.2,86.6,290.1,86.4,290.1,86.2L290.1,86.2z"/>
	<path class="st8" d="M224.2,7.1c0.4,1.5-1.3,3.1-2.6,1.8c-1.1-1.1-2.8-2.8-4.1-3.7c-1.4-0.9,0.5-2.4,2.6-1.8
		C222.1,4,223.8,5.6,224.2,7.1z"/>
	<path class="st0" d="M224.3,55.4c-0.7,0.3,0.6,1.5,0.6,1.5s14-4.8,22.5-9.7c0.1-1-0.7-1.6-0.7-1.6S236.4,51,224.3,55.4L224.3,55.4z
		"/>
	<path class="st9" d="M224.3,55.4c-0.7,0.3,0.6,1.5,0.6,1.5s14-4.8,22.5-9.7c0.1-1-0.7-1.6-0.7-1.6S236.4,51,224.3,55.4L224.3,55.4z
		"/>
	<path class="st0" d="M234.6,14.1c2.8,1.4,5.4,2.9,7.9,4.5c1.3,0.8,2.6,1.6,3.8,2.5c1.3,0.9,2.5,1.8,3.8,2.9l0.5,0.4l0.6,0.5
		c0.4,0.4,0.7,0.7,1,1c0.3,0.4,0.6,0.7,0.9,1c0.3,0.3,0.5,0.7,0.8,1c1,1.3,1.8,2.7,2.6,4c1.5,2.7,2.9,5.4,4,8.4
		c0.5,1.3-0.2,2.8-1.5,3.2c-1,0.4-2,0.1-2.7-0.6l0,0c-2-2.1-3.9-4.4-5.9-6.5c-1.9-2.1-3.9-4.2-5.5-5.1c-2.3-1.4-4.8-2.8-7.3-4.2
		L230,23h0c-2.4-1.4-3.3-4.4-1.9-6.8C229.3,13.8,232.2,12.9,234.6,14.1L234.6,14.1z"/>
	<path class="st6" d="M234.6,14.1c2.8,1.4,5.4,2.9,7.9,4.5c1.3,0.8,2.6,1.6,3.8,2.5c1.3,0.9,2.5,1.8,3.8,2.9l0.5,0.4l0.6,0.5
		c0.4,0.4,0.7,0.7,1,1c0.3,0.4,0.6,0.7,0.9,1c0.3,0.3,0.5,0.7,0.8,1c1,1.3,1.8,2.7,2.6,4c1.5,2.7,2.9,5.4,4,8.4
		c0.5,1.3-0.2,2.8-1.5,3.2c-1,0.4-2,0.1-2.7-0.6l0,0c-2-2.1-3.9-4.4-5.9-6.5c-1.9-2.1-3.9-4.2-5.5-5.1c-2.3-1.4-4.8-2.8-7.3-4.2
		L230,23h0c-2.4-1.4-3.3-4.4-1.9-6.8C229.3,13.8,232.2,12.9,234.6,14.1L234.6,14.1z"/>
	<path class="st0" d="M262.9,45.3l-0.9-2.1c0,0-0.5-2.7-2.2-3.5l-5,0.8l0.2,0.4l0,0c0.5,1,0.1,2.8-0.3,4.3c-0.4,1.5,0.3,1.6,0.9,1.4
		c0.4-0.2,0.7-0.8,1.1-1.5c0.2,0.4,0.4,0.7,0.6,1l1.2,1.7c0.5,0.7,1.5,0.9,2.3,0.4l1.4-0.9C262.9,46.9,263.2,46.1,262.9,45.3
		L262.9,45.3z"/>
	<path class="st6" d="M262.9,45.3l-0.9-2.1c0,0-0.5-2.7-2.2-3.5l-5,0.8l0.2,0.4l0,0c0.5,1,0.1,2.8-0.3,4.3c-0.4,1.5,0.3,1.6,0.9,1.4
		c0.4-0.2,0.7-0.8,1.1-1.5c0.2,0.4,0.4,0.7,0.6,1l1.2,1.7c0.5,0.7,1.5,0.9,2.3,0.4l1.4-0.9C262.9,46.9,263.2,46.1,262.9,45.3
		L262.9,45.3z"/>
	<path class="st5" d="M230.4,25.6l-1.2,0.1l-7.5,18.1c0.4,0,0.8,0,1.2-0.1c0,0,9.8-3.6,12.7-5C233.7,34.6,230.4,25.6,230.4,25.6
		L230.4,25.6z"/>
	<path class="st8" d="M216.7,30.4c0.4,3.3,2.9,10.2,5,13.4c3.6-1.3,9.8-3.6,12.7-5c-2-4.1-4.1-9.8-5.2-13.1
		C226,25.9,219.2,28.5,216.7,30.4L216.7,30.4z"/>
	<path class="st5" d="M224.2,34.3c-0.4,1.4-1.9,2.1-3.2,1.7s-2.1-1.8-1.7-3.2s1.9-2.1,3.2-1.7S224.6,32.9,224.2,34.3z"/>
	<path class="st10" d="M226.1,30.8c-0.1,0.5-0.6,0.7-1.1,0.6c-0.4-0.1-0.7-0.6-0.6-1c0.1-0.5,0.6-0.7,1.1-0.6
		C226,29.9,226.2,30.4,226.1,30.8z"/>
	<path class="st10" d="M228.3,30c-0.1,0.5-0.6,0.7-1.1,0.6c-0.4-0.1-0.7-0.6-0.6-1s0.6-0.7,1.1-0.6C228.2,29,228.4,29.5,228.3,30z"
		/>
	<polygon class="st11" points="231.5,37.8 222.2,41.4 221.7,39.6 230.9,35.9 	"/>
</g>
<g id="d">
	<path class="st1" d="M180.4,176.7c-0.2,7.5-0.8,13.3-1.7,17.4c-1.2,5.1-3,8.9-5.5,11.3c-2.5,2.4-5.4,3.6-8.8,3.6
		c-5.1,0-9.1-2.8-11.8-8.4c-0.4-0.9-0.8-1.9-1.2-3.1c-5.7,4.9-11,10.3-15.9,16l-5.3,6.3c2.9,2.9,6.1,5.3,9.8,7.2
		c6.2,3.2,14.4,4.8,24.5,4.8c1.8,0,3.5-0.1,5.2-0.1c6.1-9.1,11.2-18.8,15.1-29l14.9-38.7L180.4,176.7L180.4,176.7z"/>
	<path class="st7" d="M46.6,229.5c5.6,5.6,17.5,17.5,17.5,17.5l49-46.2C96.2,194.4,63.3,212.8,46.6,229.5L46.6,229.5z"/>
	<path class="st7" d="M107.6,290.6c-5.6-5.6-17.5-17.5-17.5-17.5l46.2-49C142.7,240.9,124.4,273.8,107.6,290.6z"/>
	<path class="st0" d="M174.6,180.3l19.1-36.8l-36.8,19.1c-11.8,6.1-22.7,13.9-32.4,23l-62.8,59.1l30.8,30.8l59.1-62.8
		C160.7,203,168.4,192.1,174.6,180.3L174.6,180.3z"/>
	<path class="st12" d="M174.6,180.3l19.1-36.8l-36.8,19.1c-11.8,6.1-22.7,13.9-32.4,23l-62.8,59.1l30.8,30.8l59.1-62.8
		C160.7,203,168.4,192.1,174.6,180.3L174.6,180.3z"/>
	<circle class="st8" cx="135.4" cy="201.8" r="12.9"/>
	<circle class="st0" cx="135.4" cy="201.8" r="8.3"/>
	<polygon class="st5" points="102.9,264.4 72.7,234.2 97.4,210.9 126.2,239.7 	"/>
	<path class="st0" d="M53.4,257.2c-22.6,1.8-30.1,16.3-32.7,35.5c-1.3,9.8-1.9,19.7-10.1,25.5c-2.3,1.6-1.1,5.1,1.6,5.1
		c30.3-1,44.5-15.8,46.3-22c-0.6,3.9-1.5,7-2.5,9.5c-1,2.5,1.7,4.8,4,3.4C68.6,308.8,79.3,299,80,283
		C73.7,274.2,53.4,257.2,53.4,257.2L53.4,257.2z"/>
	<path class="st2" d="M53.4,257.2c-22.6,1.8-30.1,16.3-32.7,35.5c-1.3,9.8-1.9,19.7-10.1,25.5c-2.3,1.6-1.1,5.1,1.6,5.1
		c30.3-1,44.5-15.8,46.3-22c-0.6,3.9-1.5,7-2.5,9.5c-1,2.5,1.7,4.8,4,3.4C68.6,308.8,79.3,299,80,283
		C73.7,274.2,53.4,257.2,53.4,257.2L53.4,257.2z"/>
	<polygon class="st0" points="83.4,289.9 47.3,253.7 66.5,249.5 87.6,270.6 	"/>
</g>
</svg>
